HIERARCHY
ROOT Hips
{
	OFFSET 0.00000 0.00000 0.00000
	CHANNELS 6 Xposition Yposition Zposition Zrotation Yrotation Xrotation 
	JOINT LHipJoint
	{
		OFFSET 0 0 0
		CHANNELS 3 Zrotation Yrotation Xrotation
		JOINT LeftHip
		{
			OFFSET 1.58895 -1.83665 0.71753
			CHANNELS 3 Zrotation Yrotation Xrotation
			JOINT LeftKnee
			{
				OFFSET 2.50528 -6.88321 0.00000
				CHANNELS 3 Zrotation Yrotation Xrotation
				JOINT LeftAnkle
				{
					OFFSET 2.63244 -7.23257 0.00000
					CHANNELS 3 Zrotation Yrotation Xrotation
					JOINT LeftToe
					{
						OFFSET 0.23691 -0.65090 1.72750
						CHANNELS 3 Zrotation Yrotation Xrotation
						End Site
						{
							OFFSET 0.00000 -0.00000 0.92561
						}
					}
				}
			}
		}
	}
	JOINT RHipJoint
	{
		OFFSET 0 0 0
		CHANNELS 3 Zrotation Yrotation Xrotation
		JOINT RightHip
		{
			OFFSET -1.51435 -1.83665 0.71753
			CHANNELS 3 Zrotation Yrotation Xrotation
			JOINT RightKnee
			{
				OFFSET -2.54551 -6.99375 0.00000
				CHANNELS 3 Zrotation Yrotation Xrotation
				JOINT RightAnkle
				{
					OFFSET -2.66027 -7.30903 0.00000
					CHANNELS 3 Zrotation Yrotation Xrotation
					JOINT RightToe
					{
						OFFSET -0.22981 -0.63138 2.03959
						CHANNELS 3 Zrotation Yrotation Xrotation
						End Site
						{
							OFFSET -0.00000 -0.00000 1.07060
						}
					}
				}
			}
		}
	}
	JOINT lowerback
	{
		OFFSET 0 0 0
		CHANNELS 3 Zrotation Yrotation Xrotation
		JOINT Chest
		{
			OFFSET -0.02651 1.86275 -0.11152
			CHANNELS 3 Zrotation Yrotation Xrotation
			JOINT Chest2
			{
				OFFSET 0.01019 1.86224 0.04087
				CHANNELS 3 Zrotation Yrotation Xrotation
				JOINT lowerneck
				{
					OFFSET 0 0 0
					CHANNELS 3 Zrotation Yrotation Xrotation
					JOINT Neck
					{
						OFFSET -0.01926 1.80512 0.08867
						CHANNELS 3 Zrotation Yrotation Xrotation
						JOINT Head
						{
							OFFSET 0.05516 1.76451 -0.38475
							CHANNELS 3 Zrotation Yrotation Xrotation
							End Site
							{
								OFFSET 0.01592 1.82587 -0.14001
							}
						}
					}
				}
				JOINT LeftCollar
				{
					OFFSET 0 0 0
					CHANNELS 3 Zrotation Yrotation Xrotation
					JOINT LeftShoulder
					{
						OFFSET 3.47116 1.51376 0.14491
CHANNELS 3 Zrotation Xrotation Yrotation
						JOINT LeftElbow
						{
OFFSET 0 -4.780950 0.000000
CHANNELS 3 Zrotation Xrotation Yrotation
							JOINT LeftWrist
							{
OFFSET 0 -3.586150 -0.000000
CHANNELS 3 Zrotation Xrotation Yrotation
								JOINT lhand
								{
									OFFSET 0 0 0
CHANNELS 3 Zrotation Xrotation Yrotation
									JOINT LFingers
									{
OFFSET 0 -0.659810 0.000000
CHANNELS 3 Zrotation Xrotation Yrotation
										End Site
										{
OFFSET 0 -0.531960 0.000000
										}
									}
								}
								JOINT LThumb
								{
OFFSET 0 0.000000 0.000000
CHANNELS 3 Zrotation Xrotation Yrotation
									End Site
									{
OFFSET 0 -0.540080 0.540080
									}
								}
							}
						}
					}
				}
				JOINT RightCollar
				{
					OFFSET 0 0 0
					CHANNELS 3 Zrotation Yrotation Xrotation
					JOINT RightShoulder
					{
						OFFSET -3.31725 1.61216 0.35156
CHANNELS 3 Zrotation Xrotation Yrotation
						JOINT RightElbow
						{
OFFSET 0 -4.489130 0.000000
CHANNELS 3 Zrotation Xrotation Yrotation
							JOINT RightWrist
							{
OFFSET 0 -3.705100 0.000000
CHANNELS 3 Zrotation Xrotation Yrotation
								JOINT rhand
								{
									OFFSET 0 0 0
CHANNELS 3 Zrotation Xrotation Yrotation
									JOINT RFingers
									{
OFFSET 0 -0.449140 0.000000
CHANNELS 3 Zrotation Xrotation Yrotation
										End Site
										{
OFFSET 0 -0.362110 0.000000
										}
									}
								}
								JOINT RThumb
								{
OFFSET 0 0.000000 0.000000
CHANNELS 3 Zrotation Xrotation Yrotation
									End Site
									{
OFFSET 0 -0.367630 0.367630
									}
								}
							}
						}
					}
				}
			}
		}
	}
}
MOTION
Frames: 6
Frame Time: 0.008333333333333333
-0.633000 18.724000 5.674900 -1.308100 -3.050700 5.387700 0.000000 0.000000 0.000000 -12.655000 -10.085200 -3.958600 1.155800 6.825600 19.199700 1.582000 5.685200 -26.393700 8.280500 -16.321700 -53.566900 0.000000 0.000000 0.000000 14.283000 4.112700 3.118000 0.000000 0.000000 -0.000000 -0.733800 -4.681300 -18.548500 -0.036400 1.232300 -3.388300 -1.927100 1.283500 -2.204100 0.161900 1.721900 -3.898400 1.238800 0.917800 -2.831800 -2.032700 -2.742100 -10.356200 4.177300 -4.553400 25.282800 1.279500 -1.848900 9.854300 -0.000000 0.000000 0.000000 -0.754100 11.915100 -27.503000 19.500500 -30.035800 5.279000 8.447100 3.391300 28.462800 0.000000 0.000000 0.000000 -7.125000 0.000000 0.000000 -12.950100 1.882700 -12.853600 -0.000000 0.000000 0.000000 -1.030500 19.667800 26.071200 -23.886400 -35.043900 -7.641200 -9.921500 19.533500 40.279300 0.000000 0.000000 0.000000 7.125000 0.000000 -0.000000 35.516600 67.482500 -20.206500
-0.633759 18.720080 5.681986 -0.738842 -2.899442 5.190089 0.000000 0.000000 0.000000 -13.303370 -9.891584 -3.653353 1.114936 6.708027 18.853145 1.542766 5.626350 -26.076110 8.279733 -16.321210 -53.564083 0.000000 0.000000 0.000000 13.657499 3.844920 3.299670 0.000000 0.000000 0.000000 -0.741515 -4.609645 -18.582221 -0.034904 1.205210 -3.313713 -2.505034 1.217694 -2.143633 0.002136 1.631381 -3.847447 1.397619 0.885667 -2.823060 -2.014098 -2.746484 -10.288077 4.180785 -4.562760 25.240167 1.277177 -1.852733 9.825854 0.000000 0.000000 0.000000 -0.730986 11.951639 -27.502644 19.466941 -29.994682 5.262271 8.635831 3.312214 28.601369 0.000000 0.000000 0.000000 -7.125000 0.000000 0.000000 -12.845969 1.725472 -12.781800 0.000000 0.000000 0.000000 -1.008413 19.705953 26.078469 -23.889193 -35.046857 -7.642810 -6.676993 17.526178 41.732750 0.000000 0.000000 0.000000 7.125000 0.000000 0.000000 41.217046 67.582871 -23.955201
-0.634036 18.717964 5.685226 -0.440708 -2.812304 5.098721 0.000000 0.000000 0.000000 -13.644529 -9.842044 -3.509355 1.096408 6.653826 18.693707 1.525550 5.618856 -25.945853 8.300878 -16.336139 -53.639240 0.000000 0.000000 0.000000 13.329179 3.698630 3.387955 0.000000 0.000000 0.000000 -0.747929 -4.538748 -18.603819 -0.034700 1.202238 -3.305549 -2.811230 1.179088 -2.133224 -0.080193 1.578969 -3.823632 1.484600 0.866290 -2.809161 -1.953731 -2.758047 -10.310048 4.119207 -4.576282 25.253076 1.243557 -1.859657 9.832234 0.000000 0.000000 0.000000 -0.750150 11.936388 -27.430426 19.420303 -29.937582 5.238983 8.586394 3.442916 28.285566 0.000000 0.000000 0.000000 -7.125000 0.000000 0.000000 -12.862312 2.039442 -12.724374 0.000000 0.000000 0.000000 -1.012117 19.705037 26.101326 -23.885616 -35.043033 -7.640775 -8.983479 18.966958 40.862262 0.000000 0.000000 0.000000 7.125000 0.000000 0.000000 37.427590 67.642140 -21.551683
-0.634000 18.717713 5.684326 -0.433495 -2.824858 5.105148 0.000000 0.000000 0.000000 -13.663196 -9.857331 -3.454415 1.084604 6.619098 18.591735 1.515495 5.734402 -25.938961 8.344237 -16.366767 -53.793496 0.000000 0.000000 0.000000 13.319391 3.711049 3.385983 0.000000 0.000000 0.000000 -0.749644 -4.505681 -18.600161 -0.035178 1.210348 -3.327836 -2.833345 1.191601 -2.164172 -0.077652 1.596754 -3.825009 1.500192 0.875662 -2.794829 -1.876070 -2.788171 -10.314478 3.981218 -4.599467 25.258143 1.179379 -1.878197 9.830278 0.000000 0.000000 0.000000 -0.764522 11.901133 -27.412609 19.385646 -29.895063 5.221673 8.051987 3.853173 27.254197 0.000000 0.000000 0.000000 -7.125000 0.000000 0.000000 -13.139310 3.106488 -12.752898 0.000000 0.000000 0.000000 -1.024814 19.677333 26.079859 -23.881735 -35.039030 -7.638617 -9.907867 19.473022 40.433934 0.000000 0.000000 0.000000 7.125000 0.000000 0.000000 35.776339 67.598971 -20.461439
-0.634948 18.717055 5.684690 -0.427689 -2.843291 5.098219 0.000000 0.000000 0.000000 -13.669319 -9.822818 -3.455331 1.084272 6.618217 18.589169 1.511883 5.765464 -25.930569 8.340281 -16.363911 -53.779333 0.000000 0.000000 0.000000 13.313480 3.726643 3.397176 0.000000 0.000000 0.000000 -0.749969 -4.507477 -18.604946 -0.034346 1.196453 -3.289449 -2.887685 1.206798 -2.240346 -0.048391 1.620824 -3.791188 1.562879 0.888395 -2.720798 -1.920141 -2.814757 -10.314337 3.971804 -4.624256 25.235390 1.180657 -1.895116 9.823780 0.000000 0.000000 0.000000 -0.807306 11.869908 -27.440454 19.377099 -29.884606 5.217422 7.840181 4.027269 26.794920 0.000000 0.000000 0.000000 -7.125000 0.000000 0.000000 -13.251080 3.577402 -12.750028 0.000000 0.000000 0.000000 -1.077198 19.645263 26.075487 -23.879985 -35.037099 -7.637502 -9.921922 19.443927 40.430757 0.000000 0.000000 0.000000 7.125000 0.000000 0.000000 35.756556 67.600836 -20.450362
-0.636075 18.717735 5.683687 -0.438474 -2.838404 5.084699 0.000000 0.000000 0.000000 -13.646290 -9.797394 -3.449789 1.084259 6.618178 18.588894 1.518994 5.688849 -25.938394 8.312314 -16.344203 -53.679919 0.000000 0.000000 0.000000 13.329073 3.724016 3.398918 0.000000 0.000000 0.000000 -0.749932 -4.518319 -18.611734 -0.030911 1.134816 -3.119893 -2.893747 1.215457 -2.238314 -0.039613 1.632668 -3.784941 1.575260 0.894474 -2.716557 -1.978215 -2.813580 -10.319747 4.036330 -4.626428 25.221371 1.212679 -1.894504 9.822911 0.000000 0.000000 0.000000 -0.810829 11.889080 -27.480926 19.398523 -29.910833 5.228091 7.863221 4.008646 26.788546 0.000000 0.000000 0.000000 -7.125000 0.000000 0.000000 -13.237303 3.581105 -12.735120 0.000000 0.000000 0.000000 -1.075583 19.625878 26.044708 -23.854688 -35.010253 -7.623011 -9.939608 19.480225 40.409362 0.000000 0.000000 0.000000 7.125000 0.000000 0.000000 35.703855 67.589536 -20.408264
